PathFileType	4	(X/Y/Z)	pose_F01_0-70.trc
DataRate	CameraRate	NumFrames	NumMarkers	Units	OrigDataRate	OrigDataStartFrame	OrigNumFrames
30	30	14	21	m	30	35	70
Frame#	Time	CHip			RHip			RKnee			RAnkle			RBigToe			RSmallToe			RHeel			LHip			LKnee			LAnkle			LBigToe			LSmallToe			LHeel			Neck			Nose			RShoulder			RElbow			RWrist			LShoulder			LElbow			LWrist			
		X1	Y1	Z1	X2	Y2	Z2	X3	Y3	Z3	X4	Y4	Z4	X5	Y5	Z5	X6	Y6	Z6	X7	Y7	Z7	X8	Y8	Z8	X9	Y9	Z9	X10	Y10	Z10	X11	Y11	Z11	X12	Y12	Z12	X13	Y13	Z13	X14	Y14	Z14	X15	Y15	Z15	X16	Y16	Z16	X17	Y17	Z17	X18	Y18	Z18	X19	Y19	Z19	X20	Y20	Z20	X21	Y21	Z21	
35	1.1666666666666667	-0.2503622559506001	1.8423118053723038	-0.6688948295247206	-0.26187732243177325	1.8406486450452222	-0.6027586724382918																-0.23616180622795485	1.8408171763583223	-0.7335554187824397	-0.25434865556785125	1.7103745170169207	-0.6133473953046548													-0.2506545582094296	1.9926199306737138	-0.6920247580935822	-0.24004065349927403	2.058540210421917	-0.6620069288815505	-0.27034788891039696	1.9884910520719303	-0.598198503718296	-0.2829815753032061	1.9109425137631069	-0.5510534303985529	-1.4063529968770654	1.8428418033492697	0.5587477585090714	-0.22692858074862765	1.995777209316723	-0.7903641967668524	-1.1240845386672709	1.8171108963993068	0.06096945209579779	-1.2515932266457597	1.8307257935827705	0.3123804294745769
36	1.2	-0.24883548879116277	1.8424457448397764	-0.6607566438919769	-0.2602372921535585	1.8406718684139831	-0.5944932145257023																-0.23525514125476643	1.8414609962140078	-0.7302979355662671	-0.25434865556785125	1.7103745170169207	-0.6133473953046548													-0.2488861901769055	1.9922226652075485	-0.6857849471463695	-0.2383363763884766	2.0584430538812444	-0.65579628304585	-0.268452521768742	1.9880986465365968	-0.5919370446625223	-0.27995724960779883	1.9083383826522962	-0.5411103780412301	-0.24405908418580316	1.9306327463099247	-0.6366091804771764	-0.22763727868168654	1.9943439805940673	-0.78216046517306	-1.1246572066260174	1.813294695901601	0.07057433188762967	-1.253579985638704	1.829566932982364	0.31907396325066556
37	1.2333333333333334	-0.24730872163172546	1.842579684307249	-0.6526184582592333	-0.25859726187534376	1.8406950917827438	-0.5862277566131127																-0.2317788247451799	1.8414093074745874	-0.717766671115684	-0.25434865556785125	1.7103745170169207	-0.6133473953046548													-0.24917940699815166	1.9912852073479728	-0.6774845361621042	-0.2388192682362962	2.0566624510606926	-0.6389660487213603	-0.26837282508544996	1.989218083903305	-0.583622500961812	-0.28004059049433855	1.909552927530384	-0.5327405040977814	-1.4265404337952379	1.8433737194157798	0.6030823726529279	-0.22589728376266247	1.9966046968450597	-0.7762835765461779	-1.141817467599704	1.8132209939298491	0.10254085176122998	-1.282995911951528	1.8304806276748469	0.37165607137730056
38	1.2666666666666666	-0.24504547609481686	1.8408579160391967	-0.6402928561098354	-0.25706193109962694	1.839429403385306	-0.5727226765598628																-0.2309839681810004	1.8396312669183652	-0.7048184348746587	-0.25434865556785125	1.7103745170169207	-0.6133473953046548													-0.24746799489323612	1.991018563815572	-0.6711839128332457	-0.2369323866795759	2.0571669367330276	-0.6326428248410162	-0.2664997037241422	1.989015919799704	-0.5771157652213526	-0.27700688837085213	1.9091330739204133	-0.5145299605125428	-0.23735545278959322	1.9362921451711246	-0.6151915447185479	-0.22550288449946487	1.9947327651495055	-0.7647221143943915	-1.1567110933169618	1.812308701755582	0.13322004588283506	-1.3042301243686674	1.8340168974580318	0.4116421714411019
39	1.3	-0.24278223055790824	1.8391361477711443	-0.6279672539604376	-0.25552660032391006	1.8381637149878682	-0.5592175965066127																-0.23018911161682085	1.8378532263621428	-0.6918701986336332	-0.25434865556785125	1.7103745170169207	-0.6133473953046548													-0.24771499666184477	1.9914400765141238	-0.6626463888113239	-0.23388530258420429	2.059708567789391	-0.6319926737224222	-0.26765655754634543	1.9880227844757852	-0.5634391292220641	-0.27607744476303914	1.9080322663338054	-0.5110045355644766	-0.2375608552877759	1.9337422586635928	-0.5974819354347923	-0.2259470127508437	1.9940628721553812	-0.7560623492620221	-1.162587230416776	1.8128031087789152	0.14917455100331636	-1.2954344100241924	1.8336299777647505	0.4071942780855427
40	1.3333333333333333	-0.24232778498825533	1.8387357762137795	-0.6156084192195758	-0.2579548715445104	1.834456711823363	-0.547571682616098																-0.22939425505264133	1.8360751858059206	-0.6789219623926078	-0.25434865556785125	1.7103745170169207	-0.6133473953046548													-0.24808295594408222	1.9904052267160808	-0.6541997665652742	-0.23367914870030937	2.0623093143432083	-0.6322955105531226	-0.2678186071530319	1.9874286569164896	-0.5547624182593996	-0.2750387016597592	1.9077747554587776	-0.4991049706475896	-0.23566458192388334	1.9350100947061017	-0.5913085573195933	-0.22739389348159486	1.9945967670563949	-0.7510744467926137	-1.1687565033666	1.8134943789937141	0.17072251289264476	-0.21402760226188866	1.9278890828739363	-0.6906434731540088
41	1.3666666666666667	-0.24076977048183507	1.8363125125320654	-0.6087342820495887	-0.2563725681433144	1.8331471504587515	-0.540558745420295																-0.228740705072414	1.8367896873734777	-0.6754963944335992	-0.25434865556785125	1.7103745170169207	-0.6133473953046548													-0.2453337322608738	1.9918616604300219	-0.6452716823427117	-0.23063177801565632	2.0649489067698785	-0.6317574417252492	-0.26787748305911135	1.9899173915594848	-0.547092250516559	-0.2729589227323509	1.9084423020788	-0.4843690369215421	-0.2360080896314098	1.9351126664424603	-0.5830290499277426	-0.22481570682434313	1.9944619602662261	-0.741780131020834	-1.1873048102371482	1.8129514965487565	0.20519600178820985	-0.21007886903370934	1.931026398291493	-0.6758242998199617
42	1.4	-0.23996111148532862	1.8345477332769877	-0.6054040279858416	-0.2547547425639206	1.8304509831242144	-0.533727816473269																-0.22593975456998222	1.8367554337998229	-0.6745257687810959	-0.25434865556785125	1.7103745170169207	-0.6133473953046548													-0.24347306350725934	1.9920140686250183	-0.6390086821721424	-0.22876299436952224	2.065051761306592	-0.6257340739963175	-0.2639733415368055	1.9880810611293205	-0.534122822579584	-0.2708798251357073	1.908207035458882	-0.47784182267202047	-0.23383030099134874	1.9373649470386793	-0.5766597512943611	-0.22296209810916434	1.9949464913479946	-0.7357549424625915	-1.1908128124780653	1.8137182784073382	0.21350679732621392	-0.2096829922113894	1.9307461338465806	-0.675408435619901
43	1.4333333333333333	-0.23950979021704388	1.8337951269492059	-0.6054693247815712	-0.25425734372997033	1.8291210977543095	-0.533717887366688																-0.22547935183988965	1.835393308208247	-0.6747254733394321	-0.25434865556785125	1.7103745170169207	-0.6133473953046548													-0.2423825390762878	1.9946248600780423	-0.6363043778635449	-0.22766218768073831	2.066115388634787	-0.6226356900988802	-0.2618639451020541	1.9904854826015164	-0.5365071775229391	-0.2686560983495765	1.9095777590498553	-0.48023457631128186	-0.23524425140837102	1.936507391335068	-0.5714843448135895	-0.22008515546845078	1.9961940447529045	-0.7352331828231138	-1.1938730713460481	1.8131076458706576	0.2221884516750465	-0.20810849204478804	1.9326145206878411	-0.6695199395342256
44	1.4666666666666666	-0.23770576057207055	1.8337347434582962	-0.6075345787096689	-0.252585905178424	1.8296452734125617	-0.5357601334765081																-0.2214034299814019	1.8366053568055862	-0.6790239119624337	-0.25434865556785125	1.7103745170169207	-0.6133473953046548													-0.24035677526617016	1.9924465897377044	-0.6380585184110179	-0.22267991447335714	2.067253675832232	-0.6244345628561366	-0.26170688787966906	1.9891468103781795	-0.5362052001058305	-0.2687510395071911	1.9075370013358053	-0.47990395113475515	-0.23086759421310216	1.938207053669797	-0.5760060399720881	-0.2200422598350471	1.997343893072502	-0.7355500199363808	-1.1685687028945555	1.819122373373357	0.19109760667797265	-0.20758023683127083	1.9300135183940261	-0.6687853392783852
45	1.5	-0.23400363025671428	1.8367135171646838	-0.6156575911899961	-0.2499016098709352	1.831866581161828	-0.5470527319282199																-0.21668969065204488	1.8405586418679996	-0.6841061238304195	-0.20858268907590644	1.7063093419168132	-0.7024673247906144													-0.23800806515141276	1.9940555679364167	-0.6403419421606406	-0.22135794608179138	2.0676199553614687	-0.6296082131611058	-0.2577164704019608	1.9894791033764339	-0.5405289240270285	-0.2677122294196931	1.9080505474738132	-0.4851408692638452	-0.23116269942425563	1.9340966733464715	-0.5666888601364259	-0.2154335441005723	1.9987472451652333	-0.7400732976677186	-1.1721712358823477	1.8195627842736923	0.19595068458030998	-0.2075559027157331	1.929577122050613	-0.6687764213651749
46	1.5333333333333334	-0.2323893314943338	1.8366972519506577	-0.6214410650229822	-0.24665670017288477	1.833460586968394	-0.5550441900149408																-0.21584185846400541	1.840120749362035	-0.6927370161230494	-0.20626954115678278	1.7055481052976713	-0.7158734441938739													-0.23682865572370182	1.9947981179931407	-0.6462954479852487	-0.21715992637210835	2.067738638156494	-0.6341991676663754	-0.2575814958337072	1.9913923751247289	-0.5496760262227588	-0.26679240702762336	1.9094078140759985	-0.4992921504808867	-0.2258920140320213	1.9352018866507417	-0.5765090538220634	-0.20885366937370958	1.9997954637221633	-0.747229231128621	-1.1661239983502296	1.8190471986429013	0.185236882035584	-0.2041342623221747	1.929203241159752	-0.6763991294646923
47	1.5666666666666667	-0.22846714505977148	1.8377303953019724	-0.6344197159674826	-0.24693567684386675	1.8331530420459703	-0.5636460297742372																-0.2107409761345707	1.8391207132790504	-0.7026737190974	-0.20395639323765913	1.7047868686785297	-0.7292795635971334													-0.23013258035350856	1.994903824864613	-0.6614693373874273	-0.21462784598677329	2.0695269808415557	-0.6451554504828002	-0.2564737794283108	1.9893070991488038	-0.5631927204587526	-0.262616383235367	1.9108490128577849	-0.5203959074685676	-0.22110346534641995	1.938639865522672	-0.580442010598424	-0.2037895916646291	2.000363121758464	-0.760076342963855	-1.1494555506404567	1.8204289097544186	0.16288384405612588	-0.20453303191268704	1.9333381462817023	-0.679904888397818
48	1.6	-0.22210705995004482	1.8370010138269675	-0.6533370461785641	-0.2359689695160122	1.8366342747952387	-0.5840238006137345																-0.20272683731677463	1.8416650114347985	-0.7267357188047774	-0.20164324531853547	1.704025632059388	-0.7426856830003931													-0.22628226485832328	1.9976699819308363	-0.6778711029679045	-0.21226936490565643	2.0681911169324527	-0.655902713323274	-0.2511358948732798	1.991281456098281	-0.5819156575358635	-0.25950067928810994	1.9155032707457276	-0.5370693551631204	-0.2229317864383879	1.9331396293347514	-0.5851806209752971	-0.1994665089947855	2.002042753020778	-0.7765340293891568	-1.1168971407544337	1.8216651243129547	0.11507054744675216	-0.19500658066723842	1.9277516878777496	-0.6943066658871669
